<?xml version="1.0" encoding="UTF-8"?>
<!DOCTYPE svg PUBLIC "-//W3C//DTD SVG 1.1//EN" "http://www.w3.org/Graphics/SVG/1.1/DTD/svg11.dtd">
<svg xmlns="http://www.w3.org/2000/svg" version="1.1" width="1024px" height="1024px" style="shape-rendering:geometricPrecision; text-rendering:geometricPrecision; image-rendering:optimizeQuality; fill-rule:evenodd; clip-rule:evenodd" xmlns:xlink="http://www.w3.org/1999/xlink">
<g><path style="opacity:1" fill="#ff549b" d="M 481.5,-0.5 C 501.5,-0.5 521.5,-0.5 541.5,-0.5C 621.408,4.47478 696.074,26.8081 765.5,66.5C 616.548,20.7393 472.881,33.5727 334.5,105C 242.355,155.811 173.522,228.645 128,323.5C 89.1857,411.166 80.1857,501.833 101,595.5C 126.39,695.492 178.89,777.992 258.5,843C 368.606,928.358 493.606,966.691 633.5,958C 709.381,952.536 781.048,932.369 848.5,897.5C 772.527,963.803 684.194,1004.3 583.5,1019C 569.366,1020.66 555.366,1022.16 541.5,1023.5C 521.5,1023.5 501.5,1023.5 481.5,1023.5C 320.949,1010.66 192.449,940.327 96,812.5C 38.5685,732.049 6.40183,642.382 -0.5,543.5C -0.5,522.167 -0.5,500.833 -0.5,479.5C 14.753,306.41 94.4196,172.243 238.5,77C 313.063,30.9789 394.063,5.14557 481.5,-0.5 Z"/></g>
<g><path style="opacity:1" fill="#ffb0d0" d="M 765.5,66.5 C 766.239,66.369 766.906,66.5357 767.5,67C 766.563,67.6917 765.897,67.525 765.5,66.5 Z"/></g>
<g><path style="opacity:1" fill="#0f9bd6" d="M 1023.5,468.5 C 1023.5,487.5 1023.5,506.5 1023.5,525.5C 1009.58,672.143 940.246,783.976 815.5,861C 776.41,883.641 734.743,899.474 690.5,908.5C 795.27,858.554 868.437,779.22 910,670.5C 940.31,585.464 945.977,498.798 927,410.5C 899.982,294.904 837.149,204.737 738.5,140C 671.498,99.7488 598.831,81.0821 520.5,84C 646.015,61.4661 759.682,88.1327 861.5,164C 958.429,242.343 1012.43,343.843 1023.5,468.5 Z"/></g>
<g><path style="opacity:1" fill="#fefb5a" d="M 252.5,226.5 C 426.07,226.167 599.57,226.501 773,227.5C 773.098,296.971 773.264,366.305 773.5,435.5C 773.658,461.918 773.158,488.252 772,514.5C 750.833,535.667 729.667,556.833 708.5,578C 630.834,578.5 553.167,578.667 475.5,578.5C 475.5,535.167 475.5,491.833 475.5,448.5C 531.167,448.5 586.833,448.5 642.5,448.5C 642.5,418.5 642.5,388.5 642.5,358.5C 556.167,358.5 469.833,358.5 383.5,358.5C 383.5,505.5 383.5,652.5 383.5,799.5C 339.833,799.5 296.167,799.5 252.5,799.5C 252.5,608.5 252.5,417.5 252.5,226.5 Z"/></g>
<g><path style="opacity:1" fill="#fffb5d" d="M 420.5,647.5 C 428.833,647.5 437.167,647.5 445.5,647.5C 445.5,684.167 445.5,720.833 445.5,757.5C 437.167,757.5 428.833,757.5 420.5,757.5C 420.5,720.833 420.5,684.167 420.5,647.5 Z"/></g>
<g><path style="opacity:1" fill="#fffb5d" d="M 462.5,647.5 C 468.509,647.334 474.509,647.501 480.5,648C 491.117,659.405 501.617,670.905 512,682.5C 522.869,671.3 533.369,659.8 543.5,648C 549.825,647.5 556.158,647.334 562.5,647.5C 562.666,653.509 562.499,659.509 562,665.5C 550.901,677.555 540.401,690.055 530.5,703C 540.613,715.45 551.113,727.617 562,739.5C 562.499,745.491 562.666,751.491 562.5,757.5C 556.132,757.83 549.798,757.496 543.5,756.5C 533.186,744.352 522.686,732.352 512,720.5C 501.126,732.372 490.626,744.538 480.5,757C 474.509,757.499 468.509,757.666 462.5,757.5C 462.334,751.158 462.5,744.825 463,738.5C 473.686,726.648 484.186,714.648 494.5,702.5C 484.186,690.352 473.686,678.352 463,666.5C 462.5,660.175 462.334,653.842 462.5,647.5 Z"/></g>
<g><path style="opacity:1" fill="#fffb5e" d="M 691.5,646.5 C 699.752,646.184 707.919,646.518 716,647.5C 716.5,675.831 716.667,704.165 716.5,732.5C 733.5,732.5 750.5,732.5 767.5,732.5C 767.5,740.833 767.5,749.167 767.5,757.5C 745.831,757.667 724.164,757.5 702.5,757C 699.369,752.867 695.869,749.034 692,745.5C 691.5,712.502 691.333,679.502 691.5,646.5 Z"/></g>
<g><path style="opacity:1" fill="#fffb5e" d="M 650.5,673.5 C 634.342,672.504 618.009,672.17 601.5,672.5C 601.17,692.674 601.503,712.674 602.5,732.5C 626.833,732.5 651.167,732.5 675.5,732.5C 675.816,740.752 675.482,748.919 674.5,757C 646.167,757.667 617.833,757.667 589.5,757C 585.667,753.167 581.833,749.333 578,745.5C 577.333,716.833 577.333,688.167 578,659.5C 581.833,655.667 585.667,651.833 589.5,648C 614.167,647.333 638.833,647.333 663.5,648C 666.965,652.467 670.798,656.633 675,660.5C 675.667,678.5 675.667,696.5 675,714.5C 656.243,715.493 637.41,715.826 618.5,715.5C 618.183,706.915 618.517,698.415 619.5,690C 629.828,689.5 640.161,689.334 650.5,689.5C 650.5,684.167 650.5,678.833 650.5,673.5 Z"/></g>
<g><path style="opacity:1" fill="#fffca7" d="M 650.5,673.5 C 634.5,673.5 618.5,673.5 602.5,673.5C 602.5,693.167 602.5,712.833 602.5,732.5C 601.503,712.674 601.17,692.674 601.5,672.5C 618.009,672.17 634.342,672.504 650.5,673.5 Z"/></g>
<g><path style="opacity:1" fill="#fea6ca" d="M 848.5,896.5 C 849.833,897.167 849.833,897.167 848.5,896.5 Z"/></g>
<g><path style="opacity:1" fill="#0f9bd6" d="M 690.5,908.5 C 689.749,909.573 688.749,909.74 687.5,909C 688.448,908.517 689.448,908.351 690.5,908.5 Z"/></g>
</svg>
